<?xml version="1.0" standalone="yes"?>
<svg xmlns="http://www.w3.org/2000/svg" width="512" height="512">
<path style="fill:#020202; stroke:none;" d="M0 0L0 512L512 512L512 0L0 0z"/>
<path style="fill:#646b73; stroke:none;" d="M118 16L118 17L130 17L118 16M110 17L110 18L113 18L110 17z"/>
<path style="fill:#dec584; stroke:none;" d="M113 17.4283C67.3016 23.9749 40.4451 69.5815 53.4383 113C59.0329 131.695 73.6913 148.317 84.8588 164C94.012 176.854 102.68 190.064 111.72 203C114.868 207.504 118.478 214.528 124.985 213.728C130.494 213.05 133.855 206.114 136.656 202C144.403 190.621 152.157 179.213 160.141 168C173.838 148.764 192.513 127.935 196.565 104C204.967 54.3714 163.608 10.1783 113 17.4283z"/>
<path style="fill:#65cbe7; stroke:none;" d="M134 17L135 18L134 17z"/>
<path style="fill:#646b73; stroke:none;" d="M135 17L135 18L138 18L135 17M105.667 18.3333L106.333 18.6667L105.667 18.3333M140 18L140 19L143 19L140 18M102 19L103 20L102 19z"/>
<path style="fill:#c97d59; stroke:none;" d="M144 19L145 20L144 19z"/>
<path style="fill:#646b73; stroke:none;" d="M145 19L146 20L145 19M99 20L100 21L99 20M148 20L149 21L148 20M96 21L97 22L96 21M151 21L152 22L151 21M94 22L95 23L94 22M153 22L154 23L153 22M91 23L92 24L91 23M155 23L156 24L155 23M89 24L90 25L89 24z"/>
<path style="fill:#c97d59; stroke:none;" d="M157 24L158 25L157 24z"/>
<path style="fill:#646b73; stroke:none;" d="M87 25L88 26L87 25M159 25L160 26L159 25M86 26L87 27L86 26M161 26L162 27L161 26M84 27L85 28L84 27M163 27L164 28L163 27M164 28L165 29L164 28M81 29L82 30L81 29M166 29L167 30L166 29M167 30L168 31L167 30M78 31L79 32L78 31M77 32L78 33L77 32M170 32L171 33L170 32z"/>
<path style="fill:#65cbe7; stroke:none;" d="M76 33L77 34L76 33z"/>
<path style="fill:#646b73; stroke:none;" d="M115 33L115 34L119 34L115 33z"/>
<path style="fill:#020202; stroke:none;" d="M119 33.4252C108.04 34.9163 97.9894 38.0742 89 44.7608C41.2915 80.2479 75.7032 155.886 133 147.7C140.745 146.593 148.366 143.642 155 139.532C203.741 109.342 177.746 25.4324 119 33.4252z"/>
<path style="fill:#646b73; stroke:none;" d="M129 33L129 34L132 34L129 33z"/>
<path style="fill:#c97d59; stroke:none;" d="M132 33L133 34L132 33z"/>
<path style="fill:#646b73; stroke:none;" d="M171 33L172 34L171 33M110.667 34.3333L111.333 34.6667L110.667 34.3333M136.667 34.3333L137.333 34.6667L136.667 34.3333M172 34L173 35L172 34M106.667 35.3333L107.333 35.6667L106.667 35.3333M140 35L141 36L140 35M72 36L73 37L72 36M104 36L105 37L104 36M143 36L144 37L143 36M71 37L72 38L71 37M101 37L102 38L101 37M145.667 37.3333L146.333 37.6667L145.667 37.3333M70 38L71 39L70 38M99 38L100 39L99 38M148 38L149 39L148 38M69 39L70 40L69 39M97 39L98 40L97 39M150 39L151 40L150 39M95 40L96 41L95 40M152 40L153 41L152 40z"/>
<path style="fill:#c97d59; stroke:none;" d="M93 41L94 42L93 41z"/>
<path style="fill:#646b73; stroke:none;" d="M153 41L154 42L153 41M92 42L93 43L92 42M155 42L156 43L155 42M180 42L181 43L180 42z"/>
<path style="fill:#65cbe7; stroke:none;" d="M66 43L67 44L66 43z"/>
<path style="fill:#c97d59; stroke:none;" d="M90 43L91 44L90 43z"/>
<path style="fill:#646b73; stroke:none;" d="M181 43L182 44L181 43M65 44L66 45L65 44M89 44L90 45L89 44M158 44L159 45L158 44M182 44L183 45L182 44M64 45L65 46L64 45M159 45L160 46L159 45z"/>
<path style="fill:#65cbe7; stroke:none;" d="M86 46L87 47L86 46z"/>
<path style="fill:#646b73; stroke:none;" d="M85 47L86 48L85 47M184 47L185 48L184 47M62 48L63 49L62 48M84 48L85 49L84 48M185 48L186 49L185 48M83 49L84 50L83 49M120 49L120 50L128 50L120 49z"/>
<path style="fill:#c97d59; stroke:none;" d="M164 49L165 50L164 49z"/>
<path style="fill:#646b73; stroke:none;" d="M82 50L83 51L82 50M114 50L115 51L114 50z"/>
<path style="fill:#c97d59; stroke:none;" d="M115 50L116 51L115 50z"/>
<path style="fill:#dec584; stroke:none;" d="M116 50.4645C64.6372 59.7251 78.8585 140.425 130 131.385C136.499 130.236 142.591 128.087 148 124.211C183.375 98.8667 157.985 42.8947 116 50.4645z"/>
<path style="fill:#646b73; stroke:none;" d="M132.667 50.3333L133.333 50.6667L132.667 50.3333z"/>
<path style="fill:#65cbe7; stroke:none;" d="M165 50L166 51L165 50z"/>
<path style="fill:#646b73; stroke:none;" d="M186 50L187 51L186 50M60 51L61 52L60 51M81 51L82 52L81 51M111 51L112 52L111 51M136 51L137 52L136 51M80 52L81 53L80 52M108 52L109 53L108 52M139 52L140 53L139 52M59 53L60 54L59 53z"/>
<path style="fill:#65cbe7; stroke:none;" d="M79 53L80 54L79 53z"/>
<path style="fill:#646b73; stroke:none;" d="M106 53L107 54L106 53M141 53L142 54L141 53M188 53L189 54L188 53M58 54L59 55L58 54z"/>
<path style="fill:#c97d59; stroke:none;" d="M104 54L105 55L104 54z"/>
<path style="fill:#646b73; stroke:none;" d="M143 54L144 55L143 54M102 55L103 56L102 55M145 55L146 56L145 55M169 55L170 56L169 55M189 55L190 56L189 55M57 56L58 57L57 56M77 56L78 57L77 56z"/>
<path style="fill:#c97d59; stroke:none;" d="M146 56L147 57L146 56M170 56L171 57L170 56z"/>
<path style="fill:#646b73; stroke:none;" d="M76 57L77 58L76 57M99 57L100 58L99 57M148 57L149 58L148 57M190 57L191 58L190 57M56 58L57 59L56 58z"/>
<path style="fill:#c97d59; stroke:none;" d="M98 58L99 59L98 58z"/>
<path style="fill:#646b73; stroke:none;" d="M149 58L150 59L149 58M75 59L76 60L75 59z"/>
<path style="fill:#c97d59; stroke:none;" d="M150 59L151 60L150 59z"/>
<path style="fill:#646b73; stroke:none;" d="M172 59L173 60L172 59M191 59L192 60L191 59z"/>
<path style="fill:#65cbe7; stroke:none;" d="M74 60L75 61L74 60z"/>
<path style="fill:#646b73; stroke:none;" d="M55 61L56 62L55 61M173 61L174 62L173 61M192 61L193 62L192 61M73 62L74 63L73 62z"/>
<path style="fill:#c97d59; stroke:none;" d="M174 62L175 63L174 62z"/>
<path style="fill:#646b73; stroke:none;" d="M54 63L55 64L54 63M72 64L73 65L72 64z"/>
<path style="fill:#c97d59; stroke:none;" d="M155 64L156 65L155 64z"/>
<path style="fill:#646b73; stroke:none;" d="M175 64L176 65L175 64M193 64L194 65L193 64z"/>
<path style="fill:#c97d59; stroke:none;" d="M91 65L92 66L91 65z"/>
<path style="fill:#646b73; stroke:none;" d="M156 65L157 66L156 65M53 66L54 67L53 66M71 66L72 67L71 66M90 66L91 67L90 66M176.333 66.6667L176.667 67.3333L176.333 66.6667M194.333 66.6667L194.667 67.3333L194.333 66.6667M319 83L355 83L355 99C322.833 99 280.845 92.2611 267.055 130C265.231 134.99 263.951 140.659 264.054 146C264.194 153.254 266.421 160.306 269 167L281 165C281 147.477 277.151 123.096 299 116.789C303.758 115.416 309.099 116 314 116L314 132C309.518 132 303.866 131.141 300.279 134.434C294.842 139.424 298.249 147.414 305.001 148.641C327.673 152.762 353.811 136.348 373 126.753C379.108 123.699 391.023 114.605 397.907 115.241C401.463 115.569 403.598 120.459 405.428 123C410.004 129.353 415.585 135.423 422 139.957C427.668 143.962 441.471 146.691 444.972 152.278C447.036 155.572 446 161.266 446 165C455.977 166.227 457.877 159.87 460.105 151C463.612 137.041 462.954 121.388 457.547 108C440.762 66.4402 400.956 66 363 66C348.454 66 324.063 64.9629 319 83M70 68L71 69L70 68M158 68L159 69L158 68z"/>
<path style="fill:#65cbe7; stroke:none;" d="M177 68L178 69L177 68z"/>
<path style="fill:#646b73; stroke:none;" d="M52 69L53 70L52 69M88 69L89 70L88 69M177 69L178 70L177 69M195 70L196 71L195 70M69 71L70 72L69 71z"/>
<path style="fill:#c97d59; stroke:none;" d="M87 71L88 72L87 71z"/>
<path style="fill:#646b73; stroke:none;" d="M160 71L161 72L160 71M178.333 71.6667L178.667 72.3333L178.333 71.6667M51.3333 72.6667L51.6667 73.3333L51.3333 72.6667M68.3333 73.6667L68.6667 74.3333L68.3333 73.6667M86 73L87 74L86 73M161 73L162 74L161 73M196.333 73.6667L196.667 74.3333L196.333 73.6667M179.333 74.6667L179.667 75.3333L179.333 74.6667M85 75L86 76L85 75z"/>
<path style="fill:#c97d59; stroke:none;" d="M196 75L197 76L196 75z"/>
<path style="fill:#646b73; stroke:none;" d="M162 76L163 77L162 76M50 77L50 80L51 80L50 77M67.3333 77.6667L67.6667 78.3333L67.3333 77.6667M84 78L85 79L84 78M163.333 78.6667L163.667 79.3333L163.333 78.6667M180 78L180 81L181 81L180 78M197 78L197 82L198 82L197 78M83 81L84 82L83 81M66 82L66 87L67 87L66 82z"/>
<path style="fill:#c97d59; stroke:none;" d="M83 82L84 83L83 82z"/>
<path style="fill:#646b73; stroke:none;" d="M164.333 82.6667L164.667 83.3333L164.333 82.6667z"/>
<path style="fill:#c97d59; stroke:none;" d="M164 84L165 85L164 84z"/>
<path style="fill:#646b73; stroke:none;" d="M181 84L181 97L182 97L181 84M49 85L49 95L50 95L49 85M82 87L82 95L83 95L82 87M66 95L66 99L67 99L66 95z"/>
<path style="fill:#c97d59; stroke:none;" d="M164 97L165 98L164 97M181 97L182 98L181 97z"/>
<path style="fill:#65cbe7; stroke:none;" d="M197 97L198 98L197 97z"/>
<path style="fill:#c97d59; stroke:none;" d="M83 98L84 99L83 98z"/>
<path style="fill:#646b73; stroke:none;" d="M164 98L165 99L164 98M197 98L197 102L198 102L197 98z"/>
<path style="fill:#c97d59; stroke:none;" d="M50 99L51 100L50 99z"/>
<path style="fill:#65cbe7; stroke:none;" d="M66 99L67 100L66 99z"/>
<path style="fill:#646b73; stroke:none;" d="M83.3333 99.6667L83.6667 100.333L83.3333 99.6667M50 100L50 103L51 103L50 100M180.333 101.667L180.667 102.333L180.333 101.667M163 102L164 103L163 102M67 103L68 104L67 103M84 103L85 104L84 103z"/>
<path style="fill:#65cbe7; stroke:none;" d="M180 103L181 104L180 103M67 104L68 105L67 104z"/>
<path style="fill:#646b73; stroke:none;" d="M196 104L196 107L197 107L196 104z"/>
<path style="fill:#c97d59; stroke:none;" d="M51 105L52 106L51 105M85 105L86 106L85 105z"/>
<path style="fill:#646b73; stroke:none;" d="M162 105L163 106L162 105M179.333 105.667L179.667 106.333L179.333 105.667M51.3333 106.667L51.6667 107.333L51.3333 106.667M68.3333 106.667L68.6667 107.333L68.3333 106.667M85 106L86 107L85 106z"/>
<path style="fill:#c97d59; stroke:none;" d="M161 107L162 108L161 107z"/>
<path style="fill:#646b73; stroke:none;" d="M86 108L87 109L86 108z"/>
<path style="fill:#65cbe7; stroke:none;" d="M52 109L53 110L52 109z"/>
<path style="fill:#c97d59; stroke:none;" d="M160 109L161 110L160 109z"/>
<path style="fill:#646b73; stroke:none;" d="M178 109L179 110L178 109M195 109L196 110L195 109M52 110L53 111L52 110M69 110L70 111L69 110M87 110L88 111L87 110M159 111L160 112L159 111M70.3333 112.667L70.6667 113.333L70.3333 112.667M177 112L178 113L177 112M194.333 112.667L194.667 113.333L194.333 112.667M53 113L54 114L53 113z"/>
<path style="fill:#c97d59; stroke:none;" d="M89 113L90 114L89 113z"/>
<path style="fill:#646b73; stroke:none;" d="M158 113L159 114L158 113z"/>
<path style="fill:#c97d59; stroke:none;" d="M157 114L158 115L157 114z"/>
<path style="fill:#646b73; stroke:none;" d="M176 114L177 115L176 114M71 115L72 116L71 115M193 115L194 116L193 115M54 116L55 117L54 116M91 116L92 117L91 116M175 116L176 117L175 116M72 117L73 118L72 117z"/>
<path style="fill:#c97d59; stroke:none;" d="M92 117L93 118L92 117z"/>
<path style="fill:#646b73; stroke:none;" d="M155 117L156 118L155 117M55 118L56 119L55 118z"/>
<path style="fill:#c97d59; stroke:none;" d="M93 118L94 119L93 118z"/>
<path style="fill:#646b73; stroke:none;" d="M154 118L155 119L154 118M174 118L175 119L174 118M192 118L193 119L192 118z"/>
<path style="fill:#c97d59; stroke:none;" d="M73 119L74 120L73 119z"/>
<path style="fill:#646b73; stroke:none;" d="M153 119L154 120L153 119M74 120L75 121L74 120M152 120L153 121L152 120M173 120L174 121L173 120M191 120L192 121L191 120M56 121L57 122L56 121z"/>
<path style="fill:#c97d59; stroke:none;" d="M96 121L97 122L96 121z"/>
<path style="fill:#646b73; stroke:none;" d="M151 121L152 122L151 121M75 122L76 123L75 122z"/>
<path style="fill:#c97d59; stroke:none;" d="M97 122L98 123L97 122z"/>
<path style="fill:#646b73; stroke:none;" d="M150 122L151 123L150 122M190 122L191 123L190 122M57 123L58 124L57 123M98 123L99 124L98 123M171 123L172 124L171 123z"/>
<path style="fill:#c97d59; stroke:none;" d="M147 124L148 125L147 124z"/>
<path style="fill:#646b73; stroke:none;" d="M189 124L190 125L189 124M58 125L59 126L58 125M77 125L78 126L77 125M101 125L102 126L101 125M146 125L147 126L146 125z"/>
<path style="fill:#65cbe7; stroke:none;" d="M59 126L60 127L59 126z"/>
<path style="fill:#646b73; stroke:none;" d="M78 126L79 127L78 126z"/>
<path style="fill:#c97d59; stroke:none;" d="M144 126L145 127L144 126z"/>
<path style="fill:#646b73; stroke:none;" d="M169 126L170 127L169 126M188 126L189 127L188 126M104 127L105 128L104 127z"/>
<path style="fill:#c97d59; stroke:none;" d="M142 127L143 128L142 127z"/>
<path style="fill:#646b73; stroke:none;" d="M168 127L169 128L168 127M60 128L61 129L60 128M106 128L107 129L106 128z"/>
<path style="fill:#c97d59; stroke:none;" d="M107 128L108 129L107 128M140 128L141 129L140 128z"/>
<path style="fill:#646b73; stroke:none;" d="M167 128L168 129L167 128M187 128L188 129L187 128M109 129L110 130L109 129M138 129L139 130L138 129M166 129L167 130L166 129M186 129L187 130L186 129M61 130L62 131L61 130M112 130L113 131L112 130z"/>
<path style="fill:#c97d59; stroke:none;" d="M134 130L135 131L134 130z"/>
<path style="fill:#646b73; stroke:none;" d="M135 130L136 131L135 130M62 131L63 132L62 131M115 131L115 132L118 132L115 131z"/>
<path style="fill:#c97d59; stroke:none;" d="M118 131L119 132L118 131M129 131L130 132L129 131z"/>
<path style="fill:#646b73; stroke:none;" d="M130.667 131.333L131.333 131.667L130.667 131.333M185 131L186 132L185 131M184 132L185 133L184 132M63 133L64 134L63 133M162 133L163 134L162 133M64 134L65 135L64 134M161 134L162 135L161 134M183 134L184 135L183 134M393 134L395 136L393 134M87 135L88 136L87 135M160 135L161 136L160 135M182 135L183 136L182 135M391 135L392 136L391 135z"/>
<path style="fill:#dec584; stroke:none;" d="M298 164C298 192.184 290.974 230.338 307.101 255C331.878 292.889 401.434 289.919 422.677 250C435.612 225.693 429 188.714 429 162C419.779 159.338 410.864 152.524 404 145.961C401.028 143.119 396.525 135.797 391.961 135.955C383.804 136.238 372.269 145.118 365 148.753C345.095 158.706 320.843 169.438 298 164z"/>
<path style="fill:#646b73; stroke:none;" d="M88 136L89 137L88 136M159 136L160 137L159 136M389 136L390 137L389 136M66 137L67 138L66 137M387 137L388 138L387 137M91 138L92 139L91 138M156 138L157 139L156 138M180 138L181 139L180 138M385 138L386 139L385 138z"/>
<path style="fill:#c97d59; stroke:none;" d="M396 138L397 139L396 138z"/>
<path style="fill:#646b73; stroke:none;" d="M92 139L93 140L92 139M383 139L384 140L383 139z"/>
<path style="fill:#c97d59; stroke:none;" d="M397 139L398 140L397 139z"/>
<path style="fill:#646b73; stroke:none;" d="M68 140L69 141L68 140M94 140L95 141L94 140M153 140L154 141L153 140M381 140L382 141L381 140M398 140L399 141L398 140M69 141L70 142L69 141M151 141L152 142L151 141M178 141L179 142L178 141M379 141L380 142L379 141M399 141L400 142L399 141z"/>
<path style="fill:#c97d59; stroke:none;" d="M97 142L98 143L97 142z"/>
<path style="fill:#646b73; stroke:none;" d="M98 142L99 143L98 142M149 142L150 143L149 142z"/>
<path style="fill:#65cbe7; stroke:none;" d="M177 142L178 143L177 142z"/>
<path style="fill:#646b73; stroke:none;" d="M377 142L378 143L377 142M400 142L401 143L400 142M70 143L71 144L70 143z"/>
<path style="fill:#65cbe7; stroke:none;" d="M99 143L100 144L99 143z"/>
<path style="fill:#646b73; stroke:none;" d="M100 143L101 144L100 143M147 143L148 144L147 143M375 143L376 144L375 143M401 143L402 144L401 143M71 144L72 145L71 144M102 144L103 145L102 144M145 144L146 145L145 144M176 144L177 145L176 144M373 144L374 145L373 144M402 144L403 145L402 144z"/>
<path style="fill:#c97d59; stroke:none;" d="M104 145L105 146L104 145z"/>
<path style="fill:#646b73; stroke:none;" d="M105 145L106 146L105 145M142 145L143 146L142 145M175 145L176 146L175 145M371 145L372 146L371 145M403 145L404 146L403 145M72 146L73 147L72 146z"/>
<path style="fill:#c97d59; stroke:none;" d="M107 146L108 147L107 146z"/>
<path style="fill:#646b73; stroke:none;" d="M108 146L109 147L108 146M138.667 146.333L139.333 146.667L138.667 146.333M369 146L370 147L369 146M404 146L405 147L404 146M73 147L74 148L73 147M111 147L111 148L114 148L111 147M134.667 147.333L135.333 147.667L134.667 147.333M174 147L175 148L174 147M367 147L368 148L367 147M405 147L406 148L405 147M117 148L117 149L130 149L117 148z"/>
<path style="fill:#65cbe7; stroke:none;" d="M130 148L131 149L130 148z"/>
<path style="fill:#646b73; stroke:none;" d="M173 148L174 149L173 148M365 148L366 149L365 148z"/>
<path style="fill:#c97d59; stroke:none;" d="M406 148L407 149L406 148z"/>
<path style="fill:#646b73; stroke:none;" d="M363 149L364 150L363 149z"/>
<path style="fill:#c97d59; stroke:none;" d="M407 149L408 150L407 149z"/>
<path style="fill:#646b73; stroke:none;" d="M75 150L76 151L75 150M361 150L362 151L361 150M171 151L172 152L171 151M359 151L360 152L359 151M410 151L411 152L410 151M357 152L358 153L357 152z"/>
<path style="fill:#c97d59; stroke:none;" d="M411 152L412 153L411 152z"/>
<path style="fill:#646b73; stroke:none;" d="M77 153L78 154L77 153M355 153L356 154L355 153M78 154L79 155L78 154M169 154L170 155L169 154M353 154L354 155L353 154M414 154L415 155L414 154z"/>
<path style="fill:#c97d59; stroke:none;" d="M168 155L169 156L168 155z"/>
<path style="fill:#646b73; stroke:none;" d="M351 155L352 156L351 155M79 156L80 157L79 156M348 156L349 157L348 156z"/>
<path style="fill:#c97d59; stroke:none;" d="M349 156L350 157L349 156z"/>
<path style="fill:#646b73; stroke:none;" d="M417 156L418 157L417 156M80 157L81 158L80 157M167 157L168 158L167 157M346 157L347 158L346 157M419 157L420 158L419 157M166 158L167 159L166 158M343 158L344 159L343 158z"/>
<path style="fill:#c97d59; stroke:none;" d="M344 158L345 159L344 158M420 158L421 159L420 158z"/>
<path style="fill:#646b73; stroke:none;" d="M340 159L341 160L340 159z"/>
<path style="fill:#c97d59; stroke:none;" d="M341 159L342 160L341 159M422 159L423 160L422 159z"/>
<path style="fill:#646b73; stroke:none;" d="M82 160L83 161L82 160M165 160L166 161L165 160M337 160L338 161L337 160z"/>
<path style="fill:#c97d59; stroke:none;" d="M424 160L425 161L424 160z"/>
<path style="fill:#646b73; stroke:none;" d="M164 161L165 162L164 161M333 161L334 162L333 161z"/>
<path style="fill:#c97d59; stroke:none;" d="M334 161L335 162L334 161M426 161L427 162L426 161z"/>
<path style="fill:#646b73; stroke:none;" d="M427 161L428 162L427 161M328.667 162.333L329.333 162.667L328.667 162.333z"/>
<path style="fill:#c97d59; stroke:none;" d="M330 162L331 163L330 162z"/>
<path style="fill:#646b73; stroke:none;" d="M84 163L85 164L84 163M323.667 163.333L324.333 163.667L323.667 163.333z"/>
<path style="fill:#c97d59; stroke:none;" d="M325 163L326 164L325 163z"/>
<path style="fill:#646b73; stroke:none;" d="M429 163L429 227L430 227L430 183L429 163z"/>
<path style="fill:#c97d59; stroke:none;" d="M85 164L86 165L85 164z"/>
<path style="fill:#646b73; stroke:none;" d="M162 164L163 165L162 164z"/>
<path style="fill:#c97d59; stroke:none;" d="M297 164L297 225L298 225L298 184L297 164M299 164L300 165L299 164z"/>
<path style="fill:#646b73; stroke:none;" d="M300 164L301 165L300 164M315 164L315 165L318 165L315 164z"/>
<path style="fill:#c97d59; stroke:none;" d="M318.667 164.333L319.333 164.667L318.667 164.333z"/>
<path style="fill:#646b73; stroke:none;" d="M86 166L87 167L86 166z"/>
<path style="fill:#c97d59; stroke:none;" d="M87 167L88 168L87 167z"/>
<path style="fill:#646b73; stroke:none;" d="M160 167L161 168L160 167z"/>
<path style="fill:#c97d59; stroke:none;" d="M159 168L160 169L159 168z"/>
<path style="fill:#646b73; stroke:none;" d="M88 169L89 170L88 169M89 170L90 171L89 170M158 170L159 171L158 170M157 171L158 172L157 171M90 172L91 173L90 172M91 173L92 174L91 173M156 173L157 174L156 173z"/>
<path style="fill:#c97d59; stroke:none;" d="M326 173L327 174L326 173z"/>
<path style="fill:#646b73; stroke:none;" d="M327 173L327 174L333 174L327 173z"/>
<path style="fill:#c97d59; stroke:none;" d="M333.667 173.333L334.333 173.667L333.667 173.333M392 173L393 174L392 173z"/>
<path style="fill:#646b73; stroke:none;" d="M393 173L393 174L399 174L393 173z"/>
<path style="fill:#c97d59; stroke:none;" d="M399 173L400 174L399 173z"/>
<path style="fill:#646b73; stroke:none;" d="M155 174L156 175L155 174z"/>
<path style="fill:#c97d59; stroke:none;" d="M322 174L323 175L322 174z"/>
<path style="fill:#646b73; stroke:none;" d="M323 174L324 175L323 174z"/>
<path style="fill:#020202; stroke:none;" d="M306 198L322 198C326.731 184.211 333.324 194.139 340.39 197.397C344.313 199.206 350.744 198 355 198C352.46 166.949 306.676 166.257 306 198z"/>
<path style="fill:#646b73; stroke:none;" d="M337 174L338 175L337 174z"/>
<path style="fill:#c97d59; stroke:none;" d="M388 174L389 175L388 174z"/>
<path style="fill:#646b73; stroke:none;" d="M389 174L390 175L389 174z"/>
<path style="fill:#020202; stroke:none;" d="M372 198L388 198C392.764 184.112 399.367 194.13 406.39 197.397C410.298 199.214 416.755 198 421 198C418.453 166.852 373.38 166.355 372 198z"/>
<path style="fill:#646b73; stroke:none;" d="M403 174L404 175L403 174M320 175L321 176L320 175M340 175L341 176L340 175M386 175L387 176L386 175M406 175L407 176L406 175M93 176L94 177L93 176M318 176L319 177L318 176z"/>
<path style="fill:#c97d59; stroke:none;" d="M342 176L343 177L342 176z"/>
<path style="fill:#646b73; stroke:none;" d="M384 176L385 177L384 176M408 176L409 177L408 176M153 177L154 178L153 177z"/>
<path style="fill:#c97d59; stroke:none;" d="M316 177L317 178L316 177M382 177L383 178L382 177z"/>
<path style="fill:#646b73; stroke:none;" d="M315 178L316 179L315 178z"/>
<path style="fill:#c97d59; stroke:none;" d="M345 178L346 179L345 178z"/>
<path style="fill:#646b73; stroke:none;" d="M381 178L382 179L381 178M411 178L412 179L411 178M95 179L96 180L95 179M346 179L347 180L346 179M412 179L413 180L412 179M96 180L97 181L96 180M151 180L152 181L151 180M347 180L348 181L347 180M413 180L414 181L413 180z"/>
<path style="fill:#c97d59; stroke:none;" d="M150 181L151 182L150 181z"/>
<path style="fill:#646b73; stroke:none;" d="M279 181L280 182L279 181M348 181L349 182L348 181M414 181L415 182L414 181M446 181L447 182L446 181M97 182L98 183L97 182M275 182L276 183L275 182z"/>
<path style="fill:#c97d59; stroke:none;" d="M276 182L277 183L276 182z"/>
<path style="fill:#dec584; stroke:none;" d="M280 214L280 182C260.945 184.867 259.554 212.937 280 214z"/>
<path style="fill:#c97d59; stroke:none;" d="M280 182L279 215L280 215C282.35 207.051 283.224 189.683 280 182z"/>
<path style="fill:#646b73; stroke:none;" d="M349 182L350 183L349 182M377 182L378 183L377 182M415 182L416 183L415 182z"/>
<path style="fill:#dec584; stroke:none;" d="M446 182L446 214C467.008 213.026 466.511 183.804 446 182z"/>
<path style="fill:#c97d59; stroke:none;" d="M450 182L451 183L450 182z"/>
<path style="fill:#646b73; stroke:none;" d="M451 182L452 183L451 182M98 183L99 184L98 183M149 183L150 184L149 183z"/>
<path style="fill:#c97d59; stroke:none;" d="M273 183L274 184L273 183z"/>
<path style="fill:#646b73; stroke:none;" d="M310 183L311 184L310 183z"/>
<path style="fill:#c97d59; stroke:none;" d="M350 183L351 184L350 183z"/>
<path style="fill:#646b73; stroke:none;" d="M376 183L377 184L376 183z"/>
<path style="fill:#c97d59; stroke:none;" d="M416 183L417 184L416 183z"/>
<path style="fill:#646b73; stroke:none;" d="M453 183L454 184L453 183M148 184L149 185L148 184M271 184L272 185L271 184z"/>
<path style="fill:#c97d59; stroke:none;" d="M309 184L310 185L309 184M375 184L376 185L375 184z"/>
<path style="fill:#646b73; stroke:none;" d="M455 184L456 185L455 184M99 185L100 186L99 185z"/>
<path style="fill:#c97d59; stroke:none;" d="M270 185L271 186L270 185z"/>
<path style="fill:#646b73; stroke:none;" d="M351 185L352 186L351 185M417 185L418 186L417 185M456 185L457 186L456 185M100 186L101 187L100 186M147 186L148 187L147 186M308 186L309 187L308 186M374 186L375 187L374 186z"/>
<path style="fill:#c97d59; stroke:none;" d="M418 186L419 187L418 186z"/>
<path style="fill:#646b73; stroke:none;" d="M457 186L458 187L457 186M146 187L147 188L146 187z"/>
<path style="fill:#c97d59; stroke:none;" d="M268 187L269 188L268 187z"/>
<path style="fill:#646b73; stroke:none;" d="M352 187L353 188L352 187M418 187L419 188L418 187M458 187L459 188L458 187M267 188L268 189L267 188M307 188L308 189L307 188M373 188L374 189L373 188M459 188L460 189L459 188M102 189L103 190L102 189M266 189L267 190L266 189M353 189L354 190L353 189M419 189L420 190L419 189M144 190L145 191L144 190z"/>
<path style="fill:#c97d59; stroke:none;" d="M306 190L307 191L306 190z"/>
<path style="fill:#646b73; stroke:none;" d="M327 190L328 191L327 190z"/>
<path style="fill:#c97d59; stroke:none;" d="M332 190L333 191L332 190z"/>
<path style="fill:#646b73; stroke:none;" d="M333 190L334 191L333 190M393 190L394 191L393 190z"/>
<path style="fill:#c97d59; stroke:none;" d="M398 190L399 191L398 190z"/>
<path style="fill:#646b73; stroke:none;" d="M399 190L400 191L399 190M460 190L461 191L460 190M265 191L266 192L265 191M306 191L307 192L306 191M325 191L326 192L325 191M372.333 191.667L372.667 192.333L372.333 191.667M391 191L392 192L391 191M401 191L402 192L401 191z"/>
<path style="fill:#c97d59; stroke:none;" d="M420 191L421 192L420 191z"/>
<path style="fill:#646b73; stroke:none;" d="M104 192L105 193L104 192z"/>
<path style="fill:#c97d59; stroke:none;" d="M265 192L266 193L265 192z"/>
<path style="fill:#646b73; stroke:none;" d="M324 192L325 193L324 192M336 192L337 193L336 192M354.333 192.667L354.667 193.333L354.333 192.667M390 192L391 193L390 192M402 192L403 193L402 192M420.333 192.667L420.667 193.333L420.333 192.667M461 192L462 193L461 192z"/>
<path style="fill:#c97d59; stroke:none;" d="M105 193L106 194L105 193z"/>
<path style="fill:#646b73; stroke:none;" d="M142 193L143 194L142 193M323 193L324 194L323 193M389 193L390 194L389 193z"/>
<path style="fill:#c97d59; stroke:none;" d="M461 193L462 194L461 193M141 194L142 195L141 194z"/>
<path style="fill:#646b73; stroke:none;" d="M264.333 194.667L264.667 195.333L264.333 194.667z"/>
<path style="fill:#c97d59; stroke:none;" d="M337 194L338 195L337 194M403 194L404 195L403 194z"/>
<path style="fill:#646b73; stroke:none;" d="M106 195L107 196L106 195z"/>
<path style="fill:#c97d59; stroke:none;" d="M305.333 195.667L305.667 196.333L305.333 195.667z"/>
<path style="fill:#646b73; stroke:none;" d="M322 195L323 196L322 195z"/>
<path style="fill:#c97d59; stroke:none;" d="M371 195L371 198L372 198L371 195z"/>
<path style="fill:#646b73; stroke:none;" d="M388 195L389 196L388 195M107 196L108 197L107 196M140 196L141 197L140 196z"/>
<path style="fill:#c97d59; stroke:none;" d="M264 196L264 200L265 200L264 196M322 196L323 197L322 196z"/>
<path style="fill:#646b73; stroke:none;" d="M338.333 196.667L338.667 197.333L338.333 196.667z"/>
<path style="fill:#c97d59; stroke:none;" d="M388 196L389 197L388 196z"/>
<path style="fill:#646b73; stroke:none;" d="M404.333 196.667L404.667 197.333L404.333 196.667M462 196L462 201L463 201L462 196M139 197L140 198L139 197M305 197L306 198L305 197z"/>
<path style="fill:#c97d59; stroke:none;" d="M33 198L33 347L169 347L202 347L213.972 345.397L215 334L214.039 305L214 198L182 198L182 264L97 264C90.8321 264 71.9313 267.724 67.6034 263.397C64.2142 260.008 66 250.416 66 246L66 198L33 198z"/>
<path style="fill:#646b73; stroke:none;" d="M82 241L83 241L83 199L89 199C82.1006 196.207 82.0023 202.921 82 208L82 241M108 198L109 199L108 198M158 199L158 200L165 199L158 199M214 198L214 220L215 220L214 198z"/>
<path style="fill:#c97d59; stroke:none;" d="M306 198L306 199L322 199L306 198M405 198L405 199L414 199L405 198M83 199L83 247L165 247L165 199C157.096 199.257 154.749 205.099 150.576 211C143.727 220.684 137.214 231.144 124 231.144C111.212 231.144 104.565 221.562 97.9745 212C93.8518 206.019 90.9078 199.259 83 199z"/>
<path style="fill:#646b73; stroke:none;" d="M109 199L110 200L109 199M138 199L139 200L138 199M181 199L181 232L182 232L181 199M137 200L138 201L137 200M264.333 200.667L264.667 201.333L264.333 200.667M90 201L91 202L90 201M111 202L112 203L111 202M156 202L157 203L156 202M135 203L136 204L135 203M461 203L462 204L461 203M92 204L93 205L92 204M265 204L266 205L265 204M93 205L94 206L93 205M113 205L114 206L113 205M154 205L155 206L154 205z"/>
<path style="fill:#c97d59; stroke:none;" d="M460 205L461 206L460 205M114 206L115 207L114 206z"/>
<path style="fill:#646b73; stroke:none;" d="M133 206L134 207L133 206M153 206L154 207L153 206M266 206L267 207L266 206M94 207L95 208L94 207z"/>
<path style="fill:#c97d59; stroke:none;" d="M132 207L133 208L132 207z"/>
<path style="fill:#646b73; stroke:none;" d="M459 207L460 208L459 207M95 208L96 209L95 208M115 208L116 209L115 208M152 208L153 209L152 208M116 209L117 210L116 209M131 209L132 210L131 209M151 209L152 210L151 209M268 209L269 210L268 209M130 210L131 211L130 210M269 210L270 211L269 210M97 211L98 212L97 211M150 211L151 212L150 211z"/>
<path style="fill:#c97d59; stroke:none;" d="M455 211L456 212L455 211z"/>
<path style="fill:#646b73; stroke:none;" d="M118 212L119 213L118 212M149 212L150 213L149 212M272 212L273 213L272 212M454 212L455 213L454 212M120 213L121 214L120 213M127 213L128 214L127 213M274 213L275 214L274 213z"/>
<path style="fill:#c97d59; stroke:none;" d="M451 213L452 214L451 213z"/>
<path style="fill:#646b73; stroke:none;" d="M452 213L453 214L452 213M99 214L100 215L99 214M122 214L122 215L126 215L122 214M277.667 214.333L278.333 214.667L277.667 214.333M280 214L281 215L280 214z"/>
<path style="fill:#c97d59; stroke:none;" d="M446.667 214.333L447.333 214.667L446.667 214.333z"/>
<path style="fill:#646b73; stroke:none;" d="M448.667 214.333L449.333 214.667L448.667 214.333M147 215L148 216L147 215M101 217L102 218L101 217M102 218L103 219L102 218M145 218L146 219L145 218M144 219L145 220L144 219M103 220L104 221L103 220M104 221L105 222L104 221M143 221L144 222L143 221M142 222L143 223L142 222M141 223L142 224L141 223M140 224L141 225L140 224M139 225L140 226L139 225M297 225L297 230L298 230L297 225M109 226L110 227L109 226M138 226L139 227L138 226M110 227L111 228L110 227M136 227L137 228L136 227M112 228L113 229L112 228M135 228L136 229L135 228M114 229L115 230L114 229M132.667 229.333L133.333 229.667L132.667 229.333M117.667 230.333L118.333 230.667L117.667 230.333M129.667 230.333L130.333 230.667L129.667 230.333M123.667 231.333L124.333 231.667L123.667 231.333M330 231L330 235L331 235L330 231z"/>
<path style="fill:#020202; stroke:none;" d="M331 231C331.118 273.731 395.642 273.659 396 231L380 231C378.636 244.315 364.15 252.829 353.043 243.61C349.516 240.681 348.398 233.397 344.686 231.603C341.063 229.852 334.954 231 331 231z"/>
<path style="fill:#646b73; stroke:none;" d="M346 231L347 232L346 231z"/>
<path style="fill:#c97d59; stroke:none;" d="M396 231L396 234L397 234L396 231M428 231L429 232L428 231M379.333 232.667L379.667 233.333L379.333 232.667z"/>
<path style="fill:#646b73; stroke:none;" d="M428.333 232.667L428.667 233.333L428.333 232.667z"/>
<path style="fill:#c97d59; stroke:none;" d="M298 233L299 234L298 233z"/>
<path style="fill:#646b73; stroke:none;" d="M298.333 234.667L298.667 235.333L298.333 234.667M379.333 234.667L379.667 235.333L379.333 234.667z"/>
<path style="fill:#c97d59; stroke:none;" d="M330 235L331 236L330 235z"/>
<path style="fill:#646b73; stroke:none;" d="M347.333 235.667L347.667 236.333L347.333 235.667z"/>
<path style="fill:#c97d59; stroke:none;" d="M427 236L428 237L427 236M378 237L379 238L378 237z"/>
<path style="fill:#646b73; stroke:none;" d="M427 237L428 238L427 237M299.333 238.667L299.667 239.333L299.333 238.667M348 238L349 239L348 238M395 238L396 239L395 238M331 239L332 240L331 239z"/>
<path style="fill:#c97d59; stroke:none;" d="M377 239L378 240L377 239M395 239L396 240L395 239M331 240L332 241L331 240z"/>
<path style="fill:#646b73; stroke:none;" d="M349 240L350 241L349 240z"/>
<path style="fill:#c97d59; stroke:none;" d="M426 240L427 241L426 240M300 241L301 242L300 241z"/>
<path style="fill:#646b73; stroke:none;" d="M350 241L351 242L350 241M376 241L377 242L376 241M394 241L395 242L394 241M426 241L427 242L426 241M332 242L333 243L332 242z"/>
<path style="fill:#c97d59; stroke:none;" d="M351 242L352 243L351 242z"/>
<path style="fill:#646b73; stroke:none;" d="M375 242L376 243L375 242z"/>
<path style="fill:#c97d59; stroke:none;" d="M394 242L395 243L394 242M332 243L333 244L332 243z"/>
<path style="fill:#646b73; stroke:none;" d="M352 243L353 244L352 243M374 243L375 244L374 243M425 243L426 244L425 243M301 244L302 245L301 244M353 244L354 245L353 244M393 244L394 245L393 244z"/>
<path style="fill:#c97d59; stroke:none;" d="M333 245L334 246L333 245M355 245L356 246L355 245z"/>
<path style="fill:#646b73; stroke:none;" d="M371 245L372 246L371 245z"/>
<path style="fill:#c97d59; stroke:none;" d="M302 246L303 247L302 246M357 246L358 247L357 246z"/>
<path style="fill:#646b73; stroke:none;" d="M369 246L370 247L369 246M392 246L393 247L392 246M424 246L425 247L424 246M83 247L83 248L165 248L140 247L83 247z"/>
<path style="fill:#c97d59; stroke:none;" d="M334 247L335 248L334 247z"/>
<path style="fill:#646b73; stroke:none;" d="M359 247L359 248L362 248L359 247z"/>
<path style="fill:#c97d59; stroke:none;" d="M362 247L362 248L365 248L362 247z"/>
<path style="fill:#646b73; stroke:none;" d="M365.667 247.333L366.333 247.667L365.667 247.333M282.667 248.333L283.333 248.667L282.667 248.333z"/>
<path style="fill:#c97d59; stroke:none;" d="M284 248L285 249L284 248z"/>
<path style="fill:#646b73; stroke:none;" d="M285 248L286 249L285 248z"/>
<path style="fill:#c97d59; stroke:none;" d="M303 248L304 249L303 248z"/>
<path style="fill:#646b73; stroke:none;" d="M335 248L336 249L335 248M391 248L392 249L391 248M423 248L424 249L423 248z"/>
<path style="fill:#c97d59; stroke:none;" d="M280 249L281 250L280 249z"/>
<path style="fill:#dec584; stroke:none;" d="M265 446L331 446C336.714 403.603 389.392 381.2 423 408.468C430.432 414.498 437.106 422.24 441.1 431C442.809 434.749 443.309 443.494 447.303 445.397C451.174 447.24 457.795 446 462 446L495 446L495 430C486.051 430 464.889 433.943 457.419 428.972C453.834 426.586 453.322 419.839 452.374 416C449.465 404.211 445.619 392.023 444 380L495 380C495 347.357 501.427 308.299 481.56 280C474.599 270.084 464.843 261.691 454 256.27C450.839 254.689 445.039 251.357 441.39 252.697C437.354 254.179 433.75 263.299 432 267C479.148 278.199 479 325.646 479 364L281 364L281 295C281 282.376 279.482 270.947 293 265L286 249C261.376 250.141 265 277.688 265 295L265 446z"/>
<path style="fill:#646b73; stroke:none;" d="M181 250L181 264L182 264L181 250M277 250L278 251L277 250z"/>
<path style="fill:#c97d59; stroke:none;" d="M304 250L305 251L304 250z"/>
<path style="fill:#646b73; stroke:none;" d="M336 250L337 251L336 250M422 250L423 251L422 250z"/>
<path style="fill:#c97d59; stroke:none;" d="M276 251L277 252L276 251M286 251L287 252L286 251z"/>
<path style="fill:#646b73; stroke:none;" d="M337 251L338 252L337 251z"/>
<path style="fill:#c97d59; stroke:none;" d="M389 251L390 252L389 251M440.667 251.333L441.333 251.667L440.667 251.333z"/>
<path style="fill:#646b73; stroke:none;" d="M442 251L443 252L442 251M274 252L275 253L274 252M305 252L306 253L305 252M388 252L389 253L388 252M439 252L440 253L439 252z"/>
<path style="fill:#c97d59; stroke:none;" d="M444 252L445 253L444 252z"/>
<path style="fill:#646b73; stroke:none;" d="M445 252L446 253L445 252z"/>
<path style="fill:#c97d59; stroke:none;" d="M273 253L274 254L273 253z"/>
<path style="fill:#646b73; stroke:none;" d="M287 253L288 254L287 253M387 253L388 254L387 253M420 253L421 254L420 253z"/>
<path style="fill:#c97d59; stroke:none;" d="M439 253L440 254L439 253z"/>
<path style="fill:#646b73; stroke:none;" d="M447 253L448 254L447 253M306 254L307 255L306 254M386 254L387 255L386 254M450 254L451 255L450 254M288 255L289 256L288 255z"/>
<path style="fill:#c97d59; stroke:none;" d="M307 255L308 256L307 255z"/>
<path style="fill:#646b73; stroke:none;" d="M385 255L386 256L385 255M419 255L420 256L419 255z"/>
<path style="fill:#c97d59; stroke:none;" d="M438 255L439 256L438 255z"/>
<path style="fill:#646b73; stroke:none;" d="M452 255L453 256L452 255M384 256L385 257L384 256M418 256L419 257L418 256M454 256L455 257L454 256z"/>
<path style="fill:#c97d59; stroke:none;" d="M269 257L270 258L269 257z"/>
<path style="fill:#646b73; stroke:none;" d="M289 257L290 258L289 257M343 257L344 258L343 257z"/>
<path style="fill:#c97d59; stroke:none;" d="M383 257L384 258L383 257M437 257L438 258L437 257z"/>
<path style="fill:#646b73; stroke:none;" d="M456 257L457 258L456 257M268 258L269 259L268 258M309 258L310 259L309 258z"/>
<path style="fill:#c97d59; stroke:none;" d="M344 258L345 259L344 258z"/>
<path style="fill:#646b73; stroke:none;" d="M290 259L291 260L290 259z"/>
<path style="fill:#c97d59; stroke:none;" d="M310 259L311 260L310 259z"/>
<path style="fill:#646b73; stroke:none;" d="M346 259L347 260L346 259M380 259L381 260L380 259M416 259L417 260L416 259z"/>
<path style="fill:#c97d59; stroke:none;" d="M436 259L437 260L436 259M459 259L460 260L459 259M267 260L268 261L267 260M311 260L312 261L311 260M347 260L348 261L347 260z"/>
<path style="fill:#646b73; stroke:none;" d="M348 260L349 261L348 260M378 260L379 261L378 260M415 260L416 261L415 260M435 260L436 261L435 260M461 260L462 261L461 260z"/>
<path style="fill:#c97d59; stroke:none;" d="M291 261L292 262L291 261z"/>
<path style="fill:#646b73; stroke:none;" d="M350 261L351 262L350 261M376 261L377 262L376 261M414 261L415 262L414 261z"/>
<path style="fill:#c97d59; stroke:none;" d="M462 261L463 262L462 261M266 262L267 263L266 262z"/>
<path style="fill:#646b73; stroke:none;" d="M292 262L293 263L292 262z"/>
<path style="fill:#c97d59; stroke:none;" d="M352 262L353 263L352 262z"/>
<path style="fill:#646b73; stroke:none;" d="M353 262L354 263L353 262M373 262L374 263L373 262z"/>
<path style="fill:#c97d59; stroke:none;" d="M374 262L375 263L374 262M413 262L414 263L413 262z"/>
<path style="fill:#646b73; stroke:none;" d="M434 262L435 263L434 262z"/>
<path style="fill:#c97d59; stroke:none;" d="M355 263L356 264L355 263z"/>
<path style="fill:#646b73; stroke:none;" d="M356.667 263.333L357.333 263.667L356.667 263.333M369.667 263.333L370.333 263.667L369.667 263.333z"/>
<path style="fill:#c97d59; stroke:none;" d="M412 263L413 264L412 263z"/>
<path style="fill:#646b73; stroke:none;" d="M465 263L466 264L465 263M67 264L67 265L78 265L67 264M149 264L149 265L168 265L149 264M265 264L266 265L265 264M293 264L294 265L293 264z"/>
<path style="fill:#c97d59; stroke:none;" d="M363 264L364 265L363 264M411 264L412 265L411 264M466 264L467 265L466 264M265 265L266 266L265 265z"/>
<path style="fill:#646b73; stroke:none;" d="M291 265L292 266L291 265M410 265L411 266L410 265M432 265L433 266L432 265M289 266L290 267L289 266z"/>
<path style="fill:#c97d59; stroke:none;" d="M317 266L318 267L317 266z"/>
<path style="fill:#646b73; stroke:none;" d="M409 266L410 267L409 266M469 266L470 267L469 266M287 267L288 268L287 267z"/>
<path style="fill:#c97d59; stroke:none;" d="M318 267L319 268L318 267z"/>
<path style="fill:#646b73; stroke:none;" d="M408 267L409 268L408 267M434 267L435 268L434 267M470 267L471 268L470 267M264.333 268.667L264.667 269.333L264.333 268.667M286 268L287 269L286 268M319 268L320 269L319 268z"/>
<path style="fill:#c97d59; stroke:none;" d="M437 268L438 269L437 268z"/>
<path style="fill:#646b73; stroke:none;" d="M471 268L472 269L471 268M285 269L286 270L285 269z"/>
<path style="fill:#c97d59; stroke:none;" d="M405 269L406 270L405 269z"/>
<path style="fill:#646b73; stroke:none;" d="M439 269L440 270L439 269M472 269L473 270L472 269z"/>
<path style="fill:#c97d59; stroke:none;" d="M264 270L264 446L265 446L265 322L265 287L264 270z"/>
<path style="fill:#646b73; stroke:none;" d="M284 270L285 271L284 270z"/>
<path style="fill:#c97d59; stroke:none;" d="M322 270L323 271L322 270z"/>
<path style="fill:#646b73; stroke:none;" d="M404 270L405 271L404 270M441 270L442 271L441 270M473 270L474 271L473 270z"/>
<path style="fill:#c97d59; stroke:none;" d="M283 271L284 272L283 271z"/>
<path style="fill:#646b73; stroke:none;" d="M323 271L324 272L323 271z"/>
<path style="fill:#c97d59; stroke:none;" d="M402 271L403 272L402 271z"/>
<path style="fill:#646b73; stroke:none;" d="M443 271L444 272L443 271M474 271L475 272L474 271M325 272L326 273L325 272M401 272L402 273L401 272M445 272L446 273L445 272M475 272L476 273L475 272M282 273L283 274L282 273z"/>
<path style="fill:#c97d59; stroke:none;" d="M327 273L328 274L327 273z"/>
<path style="fill:#646b73; stroke:none;" d="M399 273L400 274L399 273M447 273L448 274L447 273M476 273L477 274L476 273z"/>
<path style="fill:#c97d59; stroke:none;" d="M329 274L330 275L329 274z"/>
<path style="fill:#646b73; stroke:none;" d="M397 274L398 275L397 274z"/>
<path style="fill:#c97d59; stroke:none;" d="M449 274L450 275L449 274M281 275L282 276L281 275M331 275L332 276L331 275z"/>
<path style="fill:#646b73; stroke:none;" d="M395 275L396 276L395 275M450 275L451 276L450 275M281 276L282 277L281 276M333 276L334 277L333 276M393 276L394 277L393 276M335 277L336 278L335 277z"/>
<path style="fill:#c97d59; stroke:none;" d="M336 277L337 278L336 277z"/>
<path style="fill:#646b73; stroke:none;" d="M390 277L391 278L390 277M453 277L454 278L453 277z"/>
<path style="fill:#c97d59; stroke:none;" d="M479 277L480 278L479 277z"/>
<path style="fill:#646b73; stroke:none;" d="M338.667 278.333L339.333 278.667L338.667 278.333z"/>
<path style="fill:#c97d59; stroke:none;" d="M386 278L387 279L386 278z"/>
<path style="fill:#646b73; stroke:none;" d="M387 278L388 279L387 278M454 278L455 279L454 278M480 278L481 279L480 278M342.667 279.333L343.333 279.667L342.667 279.333z"/>
<path style="fill:#c97d59; stroke:none;" d="M344 279L345 280L344 279M382 279L383 280L382 279z"/>
<path style="fill:#646b73; stroke:none;" d="M383.667 279.333L384.333 279.667L383.667 279.333M348 280L348 281L351 281L348 280z"/>
<path style="fill:#c97d59; stroke:none;" d="M351 280L351 281L355 281L351 280M372 280L372 281L376 281L372 280z"/>
<path style="fill:#646b73; stroke:none;" d="M376 280L376 281L379 281L376 280M297 281L297 347L298 347L298 302L297 281z"/>
<path style="fill:#65cbe7; stroke:none;" d="M298 281L298 347L314 347C314 325.661 312.447 308.954 323 290C314.244 284.835 308.335 281 298 281z"/>
<path style="fill:#646b73; stroke:none;" d="M309 281L310 282L309 281M417 281L418 282L417 281z"/>
<path style="fill:#65cbe7; stroke:none;" d="M376 297L380 314C383.388 314.155 387.773 315.975 391 314.792C398.283 312.12 402.48 305.875 411 305.38C416.796 305.042 423.889 311.266 429 309.698C437.837 306.985 439.137 296.246 450 298C445.578 288.925 428.354 279.6 418 282.012C413.07 283.161 408.527 287.472 404 289.73C395.502 293.969 385.511 296.804 376 297z"/>
<path style="fill:#646b73; stroke:none;" d="M419 281L419 282L423 282L419 281z"/>
<path style="fill:#c97d59; stroke:none;" d="M458 281L459 282L458 281z"/>
<path style="fill:#646b73; stroke:none;" d="M482 281L483 282L482 281M310 282L311 283L310 282M426 282L427 283L426 282z"/>
<path style="fill:#c97d59; stroke:none;" d="M459 282L460 283L459 282z"/>
<path style="fill:#646b73; stroke:none;" d="M414 283L415 284L414 283M429.667 283.333L430.333 283.667L429.667 283.333z"/>
<path style="fill:#c97d59; stroke:none;" d="M460 283L461 284L460 283z"/>
<path style="fill:#646b73; stroke:none;" d="M313 284L314 285L313 284M413 284L414 285L413 284M432 284L433 285L432 284z"/>
<path style="fill:#c97d59; stroke:none;" d="M461 284L462 285L461 284z"/>
<path style="fill:#646b73; stroke:none;" d="M484 284L485 285L484 284M411 285L412 286L411 285M434 285L435 286L434 285z"/>
<path style="fill:#c97d59; stroke:none;" d="M462 285L463 286L462 285z"/>
<path style="fill:#646b73; stroke:none;" d="M316 286L317 287L316 286z"/>
<path style="fill:#c97d59; stroke:none;" d="M485 286L486 287L485 286z"/>
<path style="fill:#646b73; stroke:none;" d="M214 287L214 310L215 310L214 287M318 287L319 288L318 287M408 287L409 288L408 287M438 287L439 288L438 287M320 288L321 289L320 288M406 288L407 289L406 288M440 288L441 289L440 288M464 288L465 289L464 288z"/>
<path style="fill:#c97d59; stroke:none;" d="M486 288L487 289L486 288z"/>
<path style="fill:#646b73; stroke:none;" d="M322 289L323 290L322 289M404 289L405 290L404 289M465 289L466 290L465 289M323 290L324 291L323 290M402 290L403 291L402 290M443 290L444 291L443 290z"/>
<path style="fill:#c97d59; stroke:none;" d="M466 290L467 291L466 290M487 290L488 291L487 290z"/>
<path style="fill:#646b73; stroke:none;" d="M322 291L323 292L322 291M400 291L401 292L400 291M444 291L445 292L444 291M321 292L322 293L321 292M397 292L398 293L397 292M445 292L446 293L445 292M467 292L468 293L467 292z"/>
<path style="fill:#c97d59; stroke:none;" d="M488 292L489 293L488 292z"/>
<path style="fill:#646b73; stroke:none;" d="M394 293L395 294L394 293z"/>
<path style="fill:#c97d59; stroke:none;" d="M468 293L469 294L468 293z"/>
<path style="fill:#646b73; stroke:none;" d="M391 294L392 295L391 294M489 294L490 295L489 294M319 295L320 296L319 295M386.667 295.333L387.333 295.667L386.667 295.333M469 295L470 296L469 295M380 296L380 297L383 297L380 296M490 296L491 297L490 296M343.667 297.333L344.333 297.667L343.667 297.333z"/>
<path style="fill:#c97d59; stroke:none;" d="M388 347C388 338.253 387.57 330.837 377 330.091C373.522 329.846 367.357 332.029 364.603 329.382C356.673 321.759 368.303 306.907 354.985 299.569C333.192 287.561 329.995 316.132 330 330C330.002 334.284 329.286 341.834 332.175 345.397C334.762 348.587 343.336 347 347 347L388 347z"/>
<path style="fill:#646b73; stroke:none;" d="M348.667 297.333L349.333 297.667L348.667 297.333M375 297L376 298L375 297M443 297L443 298L448 298L443 297M450 297L453 301L450 297z"/>
<path style="fill:#c97d59; stroke:none;" d="M490 297L491 298L490 297z"/>
<path style="fill:#646b73; stroke:none;" d="M317 298L318 299L317 298M340 298L341 299L340 298M441 298L442 299L441 298z"/>
<path style="fill:#c97d59; stroke:none;" d="M471 298L472 299L471 298z"/>
<path style="fill:#646b73; stroke:none;" d="M338 299L339 300L338 299M376 299L377 300L376 299M440 299L441 300L440 299M491 299L492 300L491 299M316 300L317 301L316 300M356 300L357 301L356 300M439 300L440 301L439 300z"/>
<path style="fill:#c97d59; stroke:none;" d="M472 300L473 301L472 300M491 300L492 301L491 300z"/>
<path style="fill:#646b73; stroke:none;" d="M377 301L378 302L377 301M438 301L439 302L438 301M453 301L453 303L455 303L453 301M437 302L438 303L437 302z"/>
<path style="fill:#c97d59; stroke:none;" d="M473 302L474 303L473 302z"/>
<path style="fill:#646b73; stroke:none;" d="M492 302L493 303L492 302M315 303L316 304L315 303M436 303L437 304L436 303z"/>
<path style="fill:#65cbe7; stroke:none;" d="M454 303C453.536 311.483 446.563 315.522 442 322L462 337C462 325.81 462.606 311.522 454 303z"/>
<path style="fill:#646b73; stroke:none;" d="M473 303L474 304L473 303z"/>
<path style="fill:#c97d59; stroke:none;" d="M492 303L493 304L492 303z"/>
<path style="fill:#646b73; stroke:none;" d="M360 304L361 305L360 304M378 304L379 305L378 304M435 304L436 305L435 304M332 305L333 306L332 305M409 305L409 306L415 306L409 305M434 305L435 306L434 305M456 305L457 306L456 305M474 305L475 306L474 305M314.333 306.667L314.667 307.333L314.333 306.667M361 306L362 307L361 306M404.667 306.333L405.333 306.667L404.667 306.333M418 306L419 307L418 306M433 306L434 307L433 306M493 306L494 307L493 306M331 307L332 308L331 307M402 307L403 308L402 307M421 307L422 308L421 307M432 307L433 308L432 307M457 307L458 308L457 307z"/>
<path style="fill:#c97d59; stroke:none;" d="M475 307L476 308L475 307M493 307L494 308L493 307z"/>
<path style="fill:#646b73; stroke:none;" d="M362 308L363 309L362 308M379 308L379 311L380 311L379 308M423 308L424 309L423 308M431 308L432 309L431 308M453 308L454 309L453 308M475 308L476 309L475 308M398 309L399 310L398 309M425 309L426 310L425 309M430 309L431 310L430 309M458 309L459 310L458 309M330 310L330 313L331 313L330 310M396 310L397 311L396 310M429 310L430 311L429 310M452 310L453 311L452 310z"/>
<path style="fill:#c97d59; stroke:none;" d="M476 310L477 311L476 310z"/>
<path style="fill:#646b73; stroke:none;" d="M494.333 310.667L494.667 311.333L494.333 310.667M395 311L396 312L395 311M451 311L452 312L451 311M476 311L477 312L476 311z"/>
<path style="fill:#c97d59; stroke:none;" d="M280 312L280 333L281 333L280 312z"/>
<path style="fill:#646b73; stroke:none;" d="M394 312L395 313L394 312M450 312L451 313L450 312M459 312L460 313L459 312z"/>
<path style="fill:#c97d59; stroke:none;" d="M494.333 312.667L494.667 313.333L494.333 312.667z"/>
<path style="fill:#646b73; stroke:none;" d="M363 313L363 330L364 330L363 313M393 313L394 314L393 313M449 313L450 314L449 313M49 314C49 329.578 50.422 331 66 331L66 330L50 330L49 314z"/>
<path style="fill:#020202; stroke:none;" d="M50 314L50 330L66 330L66 314L50 314z"/>
<path style="fill:#646b73; stroke:none;" d="M82 314C82 329.578 83.422 331 99 331L99 330L83 330L82 314z"/>
<path style="fill:#020202; stroke:none;" d="M83 314L83 330L99 330L99 314L83 314z"/>
<path style="fill:#646b73; stroke:none;" d="M385 314L386 315L385 314M392 314L393 315L392 314M448 314L449 315L448 314z"/>
<path style="fill:#c97d59; stroke:none;" d="M477 314L478 315L477 314z"/>
<path style="fill:#646b73; stroke:none;" d="M388 315L389 316L388 315M391 315L392 316L391 315M447 315L448 316L447 315M460.333 315.667L460.667 316.333L460.333 315.667M477.333 315.667L477.667 316.333L477.333 315.667M446 316L447 317L446 316M445 317L446 318L445 317M444 318L445 319L444 318M495 318L495 380L496 380L496 338L495 318M443 319L444 320L443 319M461.333 319.667L461.667 320.333L461.333 319.667z"/>
<path style="fill:#c97d59; stroke:none;" d="M478.333 319.667L478.667 320.333L478.333 319.667z"/>
<path style="fill:#646b73; stroke:none;" d="M442 320L443 321L442 320M478 321L478 324L479 324L478 321M408.667 322.333L409.333 322.667L408.667 322.333z"/>
<path style="fill:#dec584; stroke:none;" d="M405 347C415.82 346.91 429.683 335.053 417.606 324.703C413.179 320.91 404.376 322.544 403.502 329.015C402.782 334.346 405 341.359 405 347z"/>
<path style="fill:#c97d59; stroke:none;" d="M413 322L414 323L413 322z"/>
<path style="fill:#646b73; stroke:none;" d="M414 322L415 323L414 322z"/>
<path style="fill:#c97d59; stroke:none;" d="M407 323L408 324L407 323M416 323L417 324L416 323z"/>
<path style="fill:#646b73; stroke:none;" d="M444 323L445 324L444 323M405 324L406 325L405 324M445 324L446 325L445 324M404 325L405 326L404 325M403 326L404 327L403 326z"/>
<path style="fill:#c97d59; stroke:none;" d="M419 326L420 327L419 326z"/>
<path style="fill:#646b73; stroke:none;" d="M448 326L449 327L448 326M462 326L462 338L463 338L462 326M402 327L403 328L402 327M420 327L421 328L420 327M449 327L450 328L449 327z"/>
<path style="fill:#c97d59; stroke:none;" d="M402 328L403 329L402 328M420 328L421 329L420 328z"/>
<path style="fill:#646b73; stroke:none;" d="M450 328L451 329L450 328M364 330L364 331L370 331L364 330M380.667 330.333L381.333 330.667L380.667 330.333M453 330L454 331L453 330M403 331L404 332L403 331M454 331L455 332L454 331M385 332L386 333L385 332M455 332L456 333L455 332M386 333L387 334L386 333z"/>
<path style="fill:#c97d59; stroke:none;" d="M404 334L405 335L404 334z"/>
<path style="fill:#646b73; stroke:none;" d="M387 335L388 336L387 335M404 335L404 347L405 347L404 335M459 335L460 336L459 335M460 336L461 337L460 336M330 339L330 342L331 342L330 339M437.333 339.667L437.667 340.333L437.333 339.667z"/>
<path style="fill:#c97d59; stroke:none;" d="M420 340L421 341L420 340z"/>
<path style="fill:#65cbe7; stroke:none;" d="M438 340L436 347L446 347L438 340z"/>
<path style="fill:#646b73; stroke:none;" d="M420 341L421 342L420 341M440 341L441 342L440 341z"/>
<path style="fill:#c97d59; stroke:none;" d="M419 342L420 343L419 342z"/>
<path style="fill:#646b73; stroke:none;" d="M441 342L442 343L441 342M314 344L314 347L315 347L314 344M436.333 344.667L436.667 345.333L436.333 344.667M331 345L332 346L331 345M416 345L417 346L416 345M445 345L446 346L445 345M214 346L215 347L214 346z"/>
<path style="fill:#c97d59; stroke:none;" d="M412.667 346.333L413.333 346.667L412.667 346.333z"/>
<path style="fill:#646b73; stroke:none;" d="M414 346L415 347L414 346M446 346L447 347L446 346M22.6667 363.333L23.3333 363.667L22.6667 363.333z"/>
<path style="fill:#c97d59; stroke:none;" d="M24 363L24 364L247 364L247 446L248 426L248 383L246.397 364.028L231 363L188 363L24 363z"/>
<path style="fill:#646b73; stroke:none;" d="M247 363L248 364L247 363z"/>
<path style="fill:#c97d59; stroke:none;" d="M281 363L281 364L479 364L460 363L420 363L281 363z"/>
<path style="fill:#646b73; stroke:none;" d="M20 364L21 365L20 364z"/>
<path style="fill:#dec584; stroke:none;" d="M17 380L68 380L59.3735 416L54.5702 428.972L44 430L17 430C17 433.656 16.2337 438.509 18.179 441.786C22.6395 449.3 40.5944 446 48 446C52.408 446 61.7485 447.758 65.4113 444.972C68.954 442.278 69.9453 433.051 71.9707 429C76.3241 420.293 83.1468 412.656 91 406.927C124.95 382.161 175.403 404.466 181 446L247 446L247 364L71 364L34 364L19.3179 366.318L17 380z"/>
<path style="fill:#c97d59; stroke:none;" d="M19 365L20 366L19 365M18 366L19 367L18 366z"/>
<path style="fill:#646b73; stroke:none;" d="M17 367L18 368L17 367M16 370L16 380L17 380L16 370M67.3333 382.667L67.6667 383.333L67.3333 382.667M444.333 382.667L444.667 383.333L444.333 382.667M66.3333 386.667L66.6667 387.333L66.3333 386.667M445.333 386.667L445.667 387.333L445.333 386.667M65.3333 390.667L65.6667 391.333L65.3333 390.667M446.333 390.667L446.667 391.333L446.333 390.667M64.3333 394.667L64.6667 395.333L64.3333 394.667M447.333 394.667L447.667 395.333L447.333 394.667M16 413L17 413L17 397L47 397C42.4257 395.081 20.33 393.434 17.0278 397.603C14.4474 400.861 16 409.031 16 413z"/>
<path style="fill:#c97d59; stroke:none;" d="M117.667 396.333L118.333 396.667L117.667 396.333z"/>
<path style="fill:#646b73; stroke:none;" d="M119 396L119 397L128 397L119 396z"/>
<path style="fill:#c97d59; stroke:none;" d="M128.667 396.333L129.333 396.667L128.667 396.333M381.667 396.333L382.333 396.667L381.667 396.333z"/>
<path style="fill:#646b73; stroke:none;" d="M383 396L383 397L393 397L383 396z"/>
<path style="fill:#c97d59; stroke:none;" d="M393.667 396.333L394.333 396.667L393.667 396.333z"/>
<path style="fill:#646b73; stroke:none;" d="M465 396L465 397L495 397L495 413C504.123 391.259 478.212 396 465 396z"/>
<path style="fill:#c97d59; stroke:none;" d="M17 397L17 413L42.2724 411.972L47 397L17 397M111 397L112 398L111 397z"/>
<path style="fill:#646b73; stroke:none;" d="M112.667 397.333L113.333 397.667L112.667 397.333M134 397L135 398L134 397z"/>
<path style="fill:#c97d59; stroke:none;" d="M135 397L136 398L135 397z"/>
<path style="fill:#646b73; stroke:none;" d="M376.667 397.333L377.333 397.667L376.667 397.333M398.667 397.333L399.333 397.667L398.667 397.333z"/>
<path style="fill:#c97d59; stroke:none;" d="M465 397L469.728 411.972L495 413L495 397L465 397z"/>
<path style="fill:#646b73; stroke:none;" d="M63.3333 398.667L63.6667 399.333L63.3333 398.667z"/>
<path style="fill:#c97d59; stroke:none;" d="M107 398L108 399L107 398z"/>
<path style="fill:#646b73; stroke:none;" d="M108 398L109 399L108 398M138.667 398.333L139.333 398.667L138.667 398.333M372.667 398.333L373.333 398.667L372.667 398.333M403 398L404 399L403 398M448.333 398.667L448.667 399.333L448.333 398.667M46 399L47 400L46 399M105 399L106 400L105 399M142 399L143 400L142 399M369 399L370 400L369 399M406 399L407 400L406 399M465 399L466 400L465 399M102 400L103 401L102 400z"/>
<path style="fill:#c97d59; stroke:none;" d="M145 400L146 401L145 400M366 400L367 401L366 400z"/>
<path style="fill:#646b73; stroke:none;" d="M409 400L410 401L409 400M100 401L101 402L100 401M147 401L148 402L147 401M364 401L365 402L364 401M411 401L412 402L411 401M62.3333 402.667L62.6667 403.333L62.3333 402.667M98 402L99 403L98 402M149 402L150 403L149 402M362 402L363 403L362 402M413 402L414 403L413 402M449.333 402.667L449.667 403.333L449.333 402.667M45 403L46 404L45 403M96 403L97 404L96 403M151 403L152 404L151 403M360 403L361 404L360 403M415 403L416 404L415 403M466 403L467 404L466 403M94 404L95 405L94 404z"/>
<path style="fill:#c97d59; stroke:none;" d="M153 404L154 405L153 404M358 404L359 405L358 404z"/>
<path style="fill:#646b73; stroke:none;" d="M417 404L418 405L417 404z"/>
<path style="fill:#c97d59; stroke:none;" d="M92 405L93 406L92 405z"/>
<path style="fill:#646b73; stroke:none;" d="M357 405L358 406L357 405z"/>
<path style="fill:#c97d59; stroke:none;" d="M419 405L420 406L419 405z"/>
<path style="fill:#646b73; stroke:none;" d="M61.3333 406.667L61.6667 407.333L61.3333 406.667M91 406L92 407L91 406M156 406L157 407L156 406z"/>
<path style="fill:#c97d59; stroke:none;" d="M355 406L356 407L355 406z"/>
<path style="fill:#646b73; stroke:none;" d="M420 406L421 407L420 406M450.333 406.667L450.667 407.333L450.333 406.667M44 407L45 408L44 407M157 407L158 408L157 407M467 407L468 408L467 407z"/>
<path style="fill:#c97d59; stroke:none;" d="M88 408L89 409L88 408z"/>
<path style="fill:#646b73; stroke:none;" d="M423 408L424 409L423 408M87 409L88 410L87 409z"/>
<path style="fill:#c97d59; stroke:none;" d="M160 409L161 410L160 409M351 409L352 410L351 409z"/>
<path style="fill:#646b73; stroke:none;" d="M424 409L425 410L424 409M60.3333 410.667L60.6667 411.333L60.3333 410.667M161 410L162 411L161 410M350 410L351 411L350 410M451.333 410.667L451.667 411.333L451.333 410.667M43 411L44 412L43 411M162 411L163 412L162 411M349 411L350 412L349 411M468 411L469 412L468 411M163 412L164 413L163 412M348 412L349 413L348 412z"/>
<path style="fill:#c97d59; stroke:none;" d="M451 412L452 413L451 412z"/>
<path style="fill:#646b73; stroke:none;" d="M116 413L116 414L120 414L116 413z"/>
<path style="fill:#c97d59; stroke:none;" d="M120 413.429C112.649 414.449 106.091 416.734 100 421.043C66.1671 444.979 88.093 500.04 129 494.711C180.772 487.966 171.361 406.302 120 413.429z"/>
<path style="fill:#646b73; stroke:none;" d="M127 413L127 414L132 414L127 413M164 413L165 414L164 413M380 413L380 414L385 414L380 413z"/>
<path style="fill:#c97d59; stroke:none;" d="M385 413.429C376.385 414.624 367.733 417.672 361.09 423.468C331.126 449.61 354.804 500.348 394 494.7C444.67 487.398 435.486 406.423 385 413.429z"/>
<path style="fill:#646b73; stroke:none;" d="M392 413L392 414L396 414L392 413M59.3333 414.667L59.6667 415.333L59.3333 414.667M112.667 414.333L113.333 414.667L112.667 414.333M133 414L133 415L136 415L133 414M165 414L166 415L165 414M376 414L376 415L379 415L376 414M398.667 414.333L399.333 414.667L398.667 414.333M452.333 414.667L452.667 415.333L452.333 414.667M109.667 415.333L110.333 415.667L109.667 415.333M137.667 415.333L138.333 415.667L137.667 415.333M166 415L167 416L166 415M345 415L346 416L345 415M374.667 415.333L375.333 415.667L374.667 415.333M401.667 415.333L402.333 415.667L401.667 415.333M107 416L108 417L107 416M140 416L141 417L140 416M167 416L168 417L167 416M344 416L345 417L344 416M371.667 416.333L372.333 416.667L371.667 416.333M404 416L405 417L404 416z"/>
<path style="fill:#c97d59; stroke:none;" d="M452 416L453 417L452 416z"/>
<path style="fill:#646b73; stroke:none;" d="M79 417L80 418L79 417M105 417L106 418L105 417M142 417L143 418L142 417z"/>
<path style="fill:#c97d59; stroke:none;" d="M168 417L169 418L168 417z"/>
<path style="fill:#646b73; stroke:none;" d="M343 417L344 418L343 417M369.667 417.333L370.333 417.667L369.667 417.333M406 417L407 418L406 417M432 417L433 418L432 417M58.3333 418.667L58.6667 419.333L58.3333 418.667M78 418L79 419L78 418M103 418L104 419L103 418M144 418L145 419L144 418z"/>
<path style="fill:#c97d59; stroke:none;" d="M342 418L343 419L342 418z"/>
<path style="fill:#646b73; stroke:none;" d="M367.667 418.333L368.333 418.667L367.667 418.333M408 418L409 419L408 418M433 418L434 419L433 418M453.333 418.667L453.667 419.333L453.333 418.667z"/>
<path style="fill:#c97d59; stroke:none;" d="M77 419L78 420L77 419z"/>
<path style="fill:#646b73; stroke:none;" d="M101.667 419.333L102.333 419.667L101.667 419.333M145 419L146 420L145 419M366 419L367 420L366 419M410 419L411 420L410 419M100 420L101 421L100 420M147 420L148 421L147 420M170 420L171 421L170 420M341 420L342 421L341 420M364 420L365 421L364 420M411 420L412 421L411 420z"/>
<path style="fill:#c97d59; stroke:none;" d="M453 420L454 421L453 420z"/>
<path style="fill:#646b73; stroke:none;" d="M76 421L77 422L76 421M99 421L100 422L99 421M148 421L149 422L148 421M171 421L172 422L171 421M340 421L341 422L340 421M363 421L364 422L363 421M413 421L414 422L413 421M435 421L436 422L435 421M57.3333 422.667L57.6667 423.333L57.3333 422.667z"/>
<path style="fill:#c97d59; stroke:none;" d="M75 422L76 423L75 422z"/>
<path style="fill:#646b73; stroke:none;" d="M97 422L98 423L97 422M362 422L363 423L362 422M414 422L415 423L414 422z"/>
<path style="fill:#c97d59; stroke:none;" d="M436 422L437 423L436 422z"/>
<path style="fill:#646b73; stroke:none;" d="M454.333 422.667L454.667 423.333L454.333 422.667M96 423L97 424L96 423M151 423L152 424L151 423M172 423L173 424L172 423M339 423L340 424L339 423M360 423L361 424L360 423M415 423L416 424L415 423M74 424L75 425L74 424M95 424L96 425L95 424M152 424L153 425L152 424z"/>
<path style="fill:#c97d59; stroke:none;" d="M173 424L174 425L173 424M338 424L339 425L338 424z"/>
<path style="fill:#646b73; stroke:none;" d="M359 424L360 425L359 424M416 424L417 425L416 424M437 424L438 425L437 424z"/>
<path style="fill:#c97d59; stroke:none;" d="M454 424L455 425L454 424z"/>
<path style="fill:#646b73; stroke:none;" d="M94 425L95 426L94 425M153 425L154 426L153 425M358 425L359 426L358 425M417 425L418 426L417 425M56.3333 426.667L56.6667 427.333L56.3333 426.667M93 426L94 427L93 426M154 426L155 427L154 426M174 426L175 427L174 426M337 426L338 427L337 426M357.333 426.667L357.667 427.333L357.333 426.667M418 426L419 427L418 426M455.333 426.667L455.667 427.333L455.333 426.667z"/>
<path style="fill:#c97d59; stroke:none;" d="M72 427L73 428L72 427z"/>
<path style="fill:#646b73; stroke:none;" d="M92 427L93 428L92 427M419 427L420 428L419 427z"/>
<path style="fill:#c97d59; stroke:none;" d="M439 427L440 428L439 427z"/>
<path style="fill:#646b73; stroke:none;" d="M91.3333 428.667L91.6667 429.333L91.3333 428.667M175 428L176 429L175 428M336 428L337 429L336 428M356 428L357 429L356 428M420 428L421 429L420 428M16 429L16 440L17 440L16 429z"/>
<path style="fill:#c97d59; stroke:none;" d="M17 429L17 430L56 430C45.726 425.689 28.1723 429 17 429M71 429L72 430L71 429z"/>
<path style="fill:#646b73; stroke:none;" d="M119 429L119 430L129 430L119 429M156 429L157 430L156 429M355 429L356 430L355 429M383 429L383 430L393 430L383 429z"/>
<path style="fill:#c97d59; stroke:none;" d="M440 429L441 430L440 429M456 429L456 430L495 430C484.726 425.689 467.172 429 456 429z"/>
<path style="fill:#646b73; stroke:none;" d="M495 429L495 446L496 446L495 429M90 430L91 431L90 430M115.667 430.333L116.333 430.667L115.667 430.333z"/>
<path style="fill:#020202; stroke:none;" d="M117 430.532C86.9318 437.696 99.3181 485.122 129 478.319C160.955 470.996 148.918 422.929 117 430.532z"/>
<path style="fill:#646b73; stroke:none;" d="M130.667 430.333L131.333 430.667L130.667 430.333M157 430L158 431L157 430M176 430L177 431L176 430M335 430L336 431L335 430M354 430L355 431L354 430M380 430L381 431L380 430z"/>
<path style="fill:#020202; stroke:none;" d="M381 430.613C351.133 438.525 364.131 485.609 394 478.097C425.693 470.127 412.455 422.28 381 430.613z"/>
<path style="fill:#646b73; stroke:none;" d="M395.667 430.333L396.333 430.667L395.667 430.333M421 430L422 431L421 430M89 431L90 432L89 431M113 431L114 432L113 431M133.667 431.333L134.333 431.667L133.667 431.333M377.667 431.333L378.333 431.667L377.667 431.333M398 431L399 432L398 431M422 431L423 432L422 431z"/>
<path style="fill:#c97d59; stroke:none;" d="M441 431L442 432L441 431z"/>
<path style="fill:#646b73; stroke:none;" d="M70 432L71 433L70 432M111 432L112 433L111 432M135.667 432.333L136.333 432.667L135.667 432.333M158 432L159 433L158 432z"/>
<path style="fill:#c97d59; stroke:none;" d="M177 432L178 433L177 432M334 432L335 433L334 432z"/>
<path style="fill:#646b73; stroke:none;" d="M353 432L354 433L353 432M375 432L376 433L375 432M400 432L401 433L400 432M441 432L442 433L441 432M88 433L89 434L88 433M109.667 433.333L110.333 433.667L109.667 433.333M137 433L138 434L137 433M159 433L160 434L159 433M177 433L178 434L177 433M334 433L335 434L334 433M352 433L353 434L352 433M374 433L375 434L374 433M401.667 433.333L402.333 433.667L401.667 433.333M423 433L424 434L423 433z"/>
<path style="fill:#c97d59; stroke:none;" d="M69 434L70 435L69 434z"/>
<path style="fill:#646b73; stroke:none;" d="M87.3333 434.667L87.6667 435.333L87.3333 434.667M108 434L109 435L108 434M139 434L140 435L139 434M372 434L373 435L372 434M403 434L404 435L403 434M424.333 434.667L424.667 435.333L424.333 434.667z"/>
<path style="fill:#c97d59; stroke:none;" d="M442 434L443 435L442 434z"/>
<path style="fill:#646b73; stroke:none;" d="M107 435L108 436L107 435M140 435L141 436L140 435M160 435L161 436L160 435M178 435L179 436L178 435M333 435L334 436L333 435M351 435L352 436L351 435M371 435L372 436L371 435M404 435L405 436L404 435M86.3333 436.667L86.6667 437.333L86.3333 436.667M106 436L107 437L106 436M141 436L142 437L141 436M370 436L371 437L370 436M405 436L406 437L405 436M425.333 436.667L425.667 437.333L425.333 436.667z"/>
<path style="fill:#c97d59; stroke:none;" d="M68 437L69 438L68 437z"/>
<path style="fill:#646b73; stroke:none;" d="M105 437L106 438L105 437M142 437L143 438L142 437M161.333 437.667L161.667 438.333L161.333 437.667M350.333 437.667L350.667 438.333L350.333 437.667M369 437L370 438L369 437M406 437L407 438L406 437z"/>
<path style="fill:#c97d59; stroke:none;" d="M443 437L444 438L443 437z"/>
<path style="fill:#646b73; stroke:none;" d="M68 438L69 439L68 438M104 438L105 439L104 438M143 438L144 439L143 438z"/>
<path style="fill:#c97d59; stroke:none;" d="M179 438L180 439L179 438M332 438L333 439L332 438z"/>
<path style="fill:#646b73; stroke:none;" d="M368 438L369 439L368 438M407 438L408 439L407 438M443 438L444 439L443 438M85 439L86 440L85 439M103 439L104 440L103 439M162 439L162 442L163 442L162 439M179 439L180 440L179 439M332 439L333 440L332 439M349.333 439.667L349.667 440.333L349.333 439.667M408 439L409 440L408 439M426.333 439.667L426.667 440.333L426.333 439.667z"/>
<path style="fill:#c97d59; stroke:none;" d="M67 440L68 441L67 440z"/>
<path style="fill:#646b73; stroke:none;" d="M144 440L145 441L144 440M367 440L368 441L367 440M17 441L18 442L17 441M67.3333 441.667L67.6667 442.333L67.3333 441.667M84.3333 441.667L84.6667 442.333L84.3333 441.667M102 441L103 442L102 441M145 441L146 442L145 441M366 441L367 442L366 441M409 441L410 442L409 441M427 441L427 444L428 444L427 441z"/>
<path style="fill:#c97d59; stroke:none;" d="M444 441L445 442L444 441z"/>
<path style="fill:#646b73; stroke:none;" d="M163 442L163 445L164 445L163 442z"/>
<path style="fill:#c97d59; stroke:none;" d="M180 442L181 443L180 442M331 442L332 443L331 442z"/>
<path style="fill:#646b73; stroke:none;" d="M348.333 442.667L348.667 443.333L348.333 442.667M444 442L445 443L444 442M101 443L102 444L101 443M146.333 443.667L146.667 444.333L146.333 443.667M180.333 443.667L180.667 444.333L180.333 443.667M331 443L332 444L331 443M365.333 443.667L365.667 444.333L365.333 443.667M410 443L411 444L410 443z"/>
<path style="fill:#c97d59; stroke:none;" d="M20 444L21 445L20 444z"/>
<path style="fill:#646b73; stroke:none;" d="M22 445L23 446L22 445z"/>
<path style="fill:#c97d59; stroke:none;" d="M66 445L67 446L66 445z"/>
<path style="fill:#646b73; stroke:none;" d="M83 445L83 448L84 448L83 445M100 445L101 446L100 445M147.333 445.667L147.667 446.333L147.333 445.667M364.333 445.667L364.667 446.333L364.333 445.667M411.333 445.667L411.667 446.333L411.333 445.667M428 445L428 449L429 449L428 445z"/>
<path style="fill:#c97d59; stroke:none;" d="M445 445L446 446L445 445z"/>
<path style="fill:#646b73; stroke:none;" d="M120.667 446.333L121.333 446.667L120.667 446.333z"/>
<path style="fill:#dec584; stroke:none;" d="M122.015 446.617C112.182 448.894 116.22 464.01 125.981 461.551C135.544 459.142 131.286 444.469 122.015 446.617z"/>
<path style="fill:#646b73; stroke:none;" d="M126 446L127 447L126 446M164 446L164 450L165 450L164 446M347 446L347 450L348 450L347 446M385 446L386 447L385 446z"/>
<path style="fill:#dec584; stroke:none;" d="M386.015 446.785C376.138 450.094 381.181 465.092 390.956 461.254C399.722 457.812 395.053 443.759 386.015 446.785z"/>
<path style="fill:#646b73; stroke:none;" d="M390.667 446.333L391.333 446.667L390.667 446.333M128 447L129 448L128 447M383 447L384 448L383 447z"/>
<path style="fill:#c97d59; stroke:none;" d="M392 447L393 448L392 447z"/>
<path style="fill:#646b73; stroke:none;" d="M99 448L99 451L100 451L99 448z"/>
<path style="fill:#c97d59; stroke:none;" d="M129 448L130 449L129 448M382 448L383 449L382 448z"/>
<path style="fill:#646b73; stroke:none;" d="M412 448L412 451L413 451L412 448M130 449L131 450L130 449M148 449L148 460L149 460L148 449M363 449L363 460L364 460L363 449M381 449L382 450L381 449M116 450L117 451L116 450M395 450L396 451L395 450M131 451L132 452L131 451M380 451L381 452L380 451M82 453L82 456L83 456L82 453M115.333 453.667L115.667 454.333L115.333 453.667M396.333 453.667L396.667 454.333L396.333 453.667M429 453L429 456L430 456L429 453z"/>
<path style="fill:#c97d59; stroke:none;" d="M131 456L132 457L131 456M380 456L381 457L380 456z"/>
<path style="fill:#646b73; stroke:none;" d="M99 457L99 461L100 461L99 457M116 457L117 458L116 457M131 457L132 458L131 457M380 457L381 458L380 457M395 457L396 458L395 457M164 458L164 462L165 462L164 458M347 458L347 462L348 462L347 458M412 458L412 461L413 461L412 458M117 459L118 460L117 459M394 459L395 460L394 459M83 460L83 463L84 463L83 460M118 460L119 461L118 460M393 460L394 461L393 460M428 460L428 463L429 463L428 460z"/>
<path style="fill:#c97d59; stroke:none;" d="M120 461L121 462L120 461z"/>
<path style="fill:#646b73; stroke:none;" d="M127 461L128 462L127 461M147.333 461.667L147.667 462.333L147.333 461.667M364.333 461.667L364.667 462.333L364.333 461.667M384 461L385 462L384 461z"/>
<path style="fill:#c97d59; stroke:none;" d="M391 461L392 462L391 461z"/>
<path style="fill:#646b73; stroke:none;" d="M100.333 462.667L100.667 463.333L100.333 462.667M122 462L122 463L126 463L122 462M386 462L386 463L390 463L386 462M411.333 462.667L411.667 463.333L411.333 462.667M101.333 464.667L101.667 465.333L101.333 464.667M146 464L147 465L146 464M163.333 464.667L163.667 465.333L163.333 464.667M348.333 464.667L348.667 465.333L348.333 464.667M365 464L366 465L365 464M410.333 464.667L410.667 465.333L410.333 464.667M84.3333 465.667L84.6667 466.333L84.3333 465.667M427.333 465.667L427.667 466.333L427.333 465.667M102.333 466.667L102.667 467.333L102.333 466.667M145 466L146 467L145 466M366 466L367 467L366 466M409.333 466.667L409.667 467.333L409.333 466.667M162.333 467.667L162.667 468.333L162.333 467.667M349.333 467.667L349.667 468.333L349.333 467.667M85.3333 468.667L85.6667 469.333L85.3333 468.667M103 468L104 469L103 468M144 468L145 469L144 468M367 468L368 469L367 468M408 468L409 469L408 468M426.333 468.667L426.667 469.333L426.333 468.667M104 469L105 470L104 469M143 469L144 470L143 469M368 469L369 470L368 469M407 469L408 470L407 469M142 470L143 471L142 470M161 470L162 471L161 470M350 470L351 471L350 470M369 470L370 471L369 470M86 471L87 472L86 471M141 471L142 472L141 471M370 471L371 472L370 471M406 471L407 472L406 471M425 471L426 472L425 471M140 472L141 473L140 472M160 472L161 473L160 472M351.333 472.667L351.667 473.333L351.333 472.667M371 472L372 473L371 472M405 472L406 473L405 472M87 473L88 474L87 473M108 473L109 474L108 473M139 473L140 474L139 473M372 473L373 474L372 473M403 473L404 474L403 473M424 473L425 474L424 473M109 474L110 475L109 474M138 474L139 475L138 474M159 474L160 475L159 474M352 474L353 475L352 474M373 474L374 475L373 474M402 474L403 475L402 474M88 475L89 476L88 475M110.667 475.333L111.333 475.667L110.667 475.333M136 475L137 476L136 475M375 475L376 476L375 475M400.667 475.333L401.333 475.667L400.667 475.333M423 475L424 476L423 475M89 476L90 477L89 476M112.667 476.333L113.333 476.667L112.667 476.333M134.667 476.333L135.333 476.667L134.667 476.333M158 476L159 477L158 476M353 476L354 477L353 476M376.667 476.333L377.333 476.667L376.667 476.333M399 476L400 477L399 476M422 476L423 477L422 476M114.667 477.333L115.333 477.667L114.667 477.333M132.667 477.333L133.333 477.667L132.667 477.333M157 477L158 478L157 477M354 477L355 478L354 477M379 477L380 478L379 477M396.667 477.333L397.333 477.667L396.667 477.333M90 478L91 479L90 478M117 478L117 479L120 479L117 478M128 478L128 479L131 479L128 478M382.667 478.333L383.333 478.667L382.667 478.333M392 478L392 479L395 479L392 478M421 478L422 479L421 478M91 479L92 480L91 479M156 479L157 480L156 479M355 479L356 480L355 479M420 479L421 480L420 479M92 480L93 481L92 480M155 480L156 481L155 480M356 480L357 481L356 480M419 480L420 481L419 480M93 481L94 482L93 481M154 481L155 482L154 481M357 481L358 482L357 481M418 481L419 482L418 481M94 482L95 483L94 482M153 482L154 483L153 482M358 482L359 483L358 482M152 483L153 484L152 483M359 483L360 484L359 483M96 484L97 485L96 484M151 484L152 485L151 484M360 484L361 485L360 484M415 484L416 485L415 484M97 485L98 486L97 485M150 485L151 486L150 485M361 485L362 486L361 485M414 485L415 486L414 485M98 486L99 487L98 486M149 486L150 487L149 486M362 486L363 487L362 486M413 486L414 487L413 486M99 487L100 488L99 487M147 487L148 488L147 487M364 487L365 488L364 487M412 487L413 488L412 487M101 488L102 489L101 488M146 488L147 489L146 488M365 488L366 489L365 488M410 488L411 489L410 488M102.667 489.333L103.333 489.667L102.667 489.333M144 489L145 490L144 489M367 489L368 490L367 489M409 489L410 490L409 489M104 490L105 491L104 490M143 490L144 491L143 490M368 490L369 491L368 490M407 490L408 491L407 490M106.667 491.333L107.333 491.667L106.667 491.333M140.667 491.333L141.333 491.667L140.667 491.333M370.667 491.333L371.333 491.667L370.667 491.333M405 491L406 492L405 491M108.667 492.333L109.333 492.667L108.667 492.333M138.667 492.333L139.333 492.667L138.667 492.333M372.667 492.333L373.333 492.667L372.667 492.333M402.667 492.333L403.333 492.667L402.667 492.333M111.667 493.333L112.333 493.667L111.667 493.333M135.667 493.333L136.333 493.667L135.667 493.333M375 493L375 494L378 494L375 493M399.667 493.333L400.333 493.667L399.667 493.333M114 494L114 495L118 495L114 494M130 494L130 495L133 495L130 494M379 494L379 495L382 495L379 494M395 494L395 495L398 495L395 494M121 495L121 496L127 496L121 495M386 495L386 496L391 496L386 495z"/>
</svg>
